<?xml version="1.0" encoding="UTF-8" standalone="no"?><!DOCTYPE svg PUBLIC "-//W3C//DTD SVG 1.1//EN" "http://www.w3.org/Graphics/SVG/1.1/DTD/svg11.dtd"><svg width="100%" height="100%" viewBox="0 0 480 480" version="1.1" xmlns="http://www.w3.org/2000/svg" xmlns:xlink="http://www.w3.org/1999/xlink" xml:space="preserve" xmlns:serif="http://www.serif.com/" style="fill-rule:evenodd;clip-rule:evenodd;stroke-linejoin:round;stroke-miterlimit:2;"><g id="Logo"><path id="White-Circle" serif:id="White Circle" d="M240,20.28c120.874,-0 218.861,97.987 218.861,218.861c-0,120.874 -97.987,218.861 -218.861,218.861c-120.874,0 -218.861,-97.987 -218.861,-218.861c-0,-120.874 97.987,-218.861 218.861,-218.861Z" style="fill:#1f2937;"/><path id="Circle-Border" serif:id="Circle Border" d="M240,20.28c120.874,-0 218.861,97.987 218.861,218.861c-0,120.874 -97.987,218.861 -218.861,218.861c-120.874,0 -218.861,-97.987 -218.861,-218.861c-0,-120.874 97.987,-218.861 218.861,-218.861Zm-0,19.781c-109.949,0 -199.08,89.131 -199.08,199.08c0,109.949 89.131,199.08 199.08,199.08c109.949,-0 199.08,-89.131 199.08,-199.08c-0,-109.949 -89.131,-199.08 -199.08,-199.08Z" style="fill:#f9fafb;"/><path id="Diamond" d="M367.158,155.22l-282.662,-113.078l0,282.694l282.662,113.077l0,-282.693Z" style="fill:#22c55e;"/><path id="Diamond-Border" serif:id="Diamond Border" d="M294.359,113.173l77.256,30.905c4.556,1.823 7.543,6.235 7.543,11.142c0,-0 0,21.852 0,21.852l11.809,-4.724c3.697,-1.479 7.887,-1.028 11.185,1.204c3.297,2.233 5.272,5.955 5.272,9.937l0,113.078c0,4.906 -2.987,9.319 -7.543,11.141l-20.723,8.29l0,121.915c0,3.982 -1.975,7.705 -5.273,9.937c-3.297,2.233 -7.487,2.684 -11.184,1.205l-181.406,-72.571l-0,10.545c-0,4.906 -2.988,9.319 -7.543,11.141l-56.533,22.616c-3.697,1.479 -7.887,1.027 -11.184,-1.205c-3.297,-2.232 -5.273,-5.955 -5.273,-9.937l0,-65.376l-20.723,-8.29c-4.556,-1.823 -7.543,-6.235 -7.543,-11.142l0,-282.694c0,-3.982 1.975,-7.704 5.273,-9.937c3.297,-2.232 7.487,-2.683 11.184,-1.204l115.674,46.275l73.275,-29.314c3.697,-1.479 7.887,-1.027 11.185,1.205c3.297,2.232 5.272,5.955 5.272,9.937l0,54.069Zm-89.732,-22.973l-120.131,-48.058l0,282.694l28.266,11.308l0,73.5l56.533,-22.615l-0,-28.27l197.863,79.154l0,-130.039l28.266,-11.307l0,-113.078l-28.266,11.308l0,-39.577l-91.865,-36.75l7.066,-2.827l0,-56.539l-77.732,31.096Z" style="fill:#f9fafb;"/><path id="F" d="M112.762,409.644l0,-282.694l56.533,-22.615l113.064,-45.231l0,56.539l-113.064,45.231l-0,56.538l56.532,-22.615l0,56.539l-56.532,22.615l-0,113.078l-56.533,22.615Z" style="fill:#1f2937;"/><path id="U" d="M225.827,364.413l0,-113.077l56.532,-22.616l0,56.539l56.533,-22.616l-0,-56.538l56.532,-22.616l0,113.078l-56.532,22.615l-113.065,45.231Z" style="fill:#1f2937;"/></g></svg>