<?xml version="1.0" standalone="no"?>
<!DOCTYPE svg PUBLIC "-//W3C//DTD SVG 20010904//EN"
 "http://www.w3.org/TR/2001/REC-SVG-20010904/DTD/svg10.dtd">
<svg version="1.0" xmlns="http://www.w3.org/2000/svg"
 width="700.000000pt" height="700.000000pt" viewBox="0 0 700.000000 700.000000"
 preserveAspectRatio="xMidYMid meet">
<metadata>
Created by potrace 1.14, written by Peter Selinger 2001-2017
</metadata>
<g transform="translate(0.000000,700.000000) scale(0.100000,-0.100000)"
fill="#000000" stroke="none">
<path d="M3427 6704 c-1 -1 -58 -4 -127 -8 -69 -3 -136 -8 -150 -10 -14 -2
-47 -7 -75 -10 -54 -7 -72 -10 -187 -31 -273 -51 -606 -167 -855 -298 l-102
-54 -48 20 c-26 11 -61 25 -78 32 -16 7 -95 38 -175 70 -80 31 -163 65 -185
75 -107 47 -191 72 -233 67 -53 -6 -105 -41 -133 -90 -21 -38 -21 -47 -22
-470 l0 -431 -47 -58 c-197 -245 -394 -588 -498 -868 -51 -139 -126 -407 -146
-520 -3 -19 -8 -46 -11 -60 -3 -14 -8 -43 -11 -65 -3 -22 -7 -51 -9 -65 -27
-183 -27 -677 0 -829 1 -9 5 -38 9 -66 4 -27 13 -84 22 -125 8 -41 16 -85 19
-98 2 -13 7 -32 10 -42 3 -10 8 -28 10 -41 3 -12 16 -63 31 -113 172 -583 496
-1089 967 -1509 52 -46 67 -66 67 -87 0 -99 97 -178 204 -165 46 6 56 3 101
-27 134 -90 353 -203 526 -273 235 -95 538 -177 744 -201 28 -3 56 -7 63 -10
54 -17 516 -25 682 -11 301 26 662 117 959 242 l113 48 229 -92 c137 -54 243
-91 264 -91 72 0 141 50 164 119 7 21 11 118 11 261 l0 227 77 69 c379 340
660 733 847 1186 58 139 136 389 160 508 3 14 12 59 20 100 8 42 18 98 21 125
4 28 8 57 10 65 12 44 20 212 20 420 0 237 -8 353 -30 470 -3 14 -7 41 -9 60
-47 358 -244 859 -478 1210 -142 214 -236 329 -418 510 -362 362 -766 612
-1242 771 -117 39 -319 92 -390 103 -21 3 -57 10 -80 15 -24 5 -68 12 -99 15
-31 4 -65 8 -75 10 -47 9 -429 27 -437 20z m313 -298 c443 -42 823 -159 1191
-368 230 -131 395 -255 592 -445 441 -427 730 -975 841 -1598 2 -11 7 -47 11
-80 4 -32 8 -67 10 -77 7 -34 18 -245 18 -333 0 -87 -11 -287 -17 -322 -2 -10
-7 -43 -11 -73 -14 -110 -56 -303 -95 -430 -136 -454 -366 -844 -707 -1200
l-43 -45 3 480 2 479 95 38 c52 21 106 43 120 49 14 5 44 17 67 26 51 19 90
55 109 100 21 49 21 1737 0 1786 -20 50 -80 94 -136 102 -45 6 -87 -6 -247
-72 -10 -4 -13 34 -13 171 0 191 -7 222 -62 273 -12 12 -104 54 -203 93 -99
40 -193 78 -210 85 -16 7 -73 29 -125 50 -52 20 -104 41 -115 45 -15 7 -420
170 -512 207 -8 3 -11 114 -11 418 l1 413 -24 43 c-30 54 -87 89 -149 89 -34
0 -143 -39 -485 -176 -242 -97 -453 -182 -470 -189 -16 -7 -64 -26 -105 -42
l-75 -30 -145 59 c-80 33 -152 61 -160 63 -42 12 -379 151 -380 156 0 10 157
74 280 115 105 35 304 88 370 99 19 3 46 8 60 10 50 10 187 26 275 31 50 4 91
7 92 8 5 4 309 -3 363 -8z m377 -679 l0 -414 -596 -238 c-328 -131 -614 -246
-636 -255 -22 -9 -124 -50 -227 -91 l-188 -74 0 -412 0 -413 48 19 c26 10 210
84 409 164 217 86 363 140 365 133 3 -9 2 -788 -1 -807 -1 -3 -185 -79 -411
-170 l-410 -164 0 -825 0 -825 -408 -163 c-224 -89 -409 -162 -412 -162 -3 0
-5 927 -5 2059 l0 2059 145 58 c80 31 163 65 185 75 22 10 252 102 510 204
259 103 484 193 500 200 17 7 278 112 580 233 303 122 550 221 551 221 0 1 1
-185 1 -412z m-3060 -2080 c0 -1334 1 -1425 18 -1456 9 -19 25 -42 34 -52 16
-18 99 -58 171 -84 19 -7 70 -27 113 -45 l77 -32 0 -271 -1 -272 -75 80 c-388
411 -654 935 -750 1475 -4 25 -8 47 -9 50 -1 3 -5 32 -9 65 -4 32 -10 67 -11
77 -6 29 -18 268 -18 348 0 81 11 275 17 307 3 11 7 44 11 74 33 278 155 669
281 904 90 170 140 255 148 255 2 0 3 -640 3 -1423z m4709 -149 l0 -823 -1230
-492 c-677 -271 -1233 -493 -1236 -493 -3 0 -6 370 -5 822 l0 823 405 162
c223 90 408 163 411 163 3 0 6 -182 6 -405 0 -223 3 -408 6 -412 4 -3 12 -2
19 4 7 5 47 22 88 38 41 16 93 36 115 46 22 9 101 40 175 69 74 29 139 57 145
61 5 5 15 9 22 9 7 0 32 9 56 19 23 11 74 31 112 46 39 15 74 31 79 35 4 5 9
192 10 417 l1 408 400 162 c220 88 405 162 411 162 7 1 10 -251 10 -821z
m-1468 -2649 c68 -28 135 -55 150 -61 26 -10 23 -11 -48 -35 -41 -14 -79 -26
-85 -27 -5 -1 -26 -7 -45 -14 -43 -14 -257 -59 -325 -68 -27 -3 -93 -12 -145
-19 -91 -12 -542 -14 -600 -2 -14 3 -47 8 -75 11 -218 27 -480 94 -687 177
-57 22 -168 72 -247 111 -165 82 -166 69 10 138 57 22 113 45 124 50 11 4 67
27 125 50 122 49 141 62 170 113 17 30 23 58 25 135 2 53 4 98 4 98 1 2 1251
-497 1649 -657z"/>
</g>
</svg>
