<?xml version="1.0" encoding="UTF-8" standalone="no"?>
<!DOCTYPE svg PUBLIC "-//W3C//DTD SVG 1.1//EN" "http://www.w3.org/Graphics/SVG/1.1/DTD/svg11.dtd">
<svg width="100%" height="100%" viewBox="0 0 1920 428" version="1.1" xmlns="http://www.w3.org/2000/svg" xmlns:xlink="http://www.w3.org/1999/xlink" xml:space="preserve" xmlns:serif="http://www.serif.com/" style="fill-rule:evenodd;clip-rule:evenodd;stroke-linejoin:round;stroke-miterlimit:2;">
    <g transform="matrix(1.61275,0,0,1.95541,-1138.73,-99.0662)">
        <path d="M827.036,269.543C807.452,269.543 790.124,267.359 775.052,262.991C759.98,258.623 747.332,251.951 737.108,242.975C726.884,233.999 719.156,222.671 713.924,208.991C708.692,195.311 706.076,179.207 706.076,160.679C706.076,137.063 710.828,117.071 720.332,100.703C729.836,84.335 743.756,71.903 762.092,63.407C780.428,54.911 802.844,50.663 829.34,50.663C837.404,50.663 845.252,51.023 852.884,51.743C860.516,52.463 867.884,53.591 874.988,55.127L874.988,105.815C868.748,104.567 862.292,103.583 855.62,102.863C848.948,102.143 842.012,101.783 834.812,101.783C820.124,101.783 808.124,103.823 798.812,107.903C789.5,111.983 782.612,118.319 778.148,126.911C773.684,135.503 771.452,146.567 771.452,160.103C771.452,173.831 773.612,184.991 777.932,193.583C782.252,202.175 788.972,208.463 798.092,212.447C807.212,216.431 818.972,218.423 833.372,218.423C840.284,218.423 847.268,217.871 854.324,216.767C861.38,215.663 868.268,214.247 874.988,212.519L874.988,263.207C868.364,265.127 860.804,266.663 852.308,267.815C843.812,268.967 835.388,269.543 827.036,269.543Z" style="fill:rgb(46,195,36);fill-rule:nonzero;"/>
        <g transform="matrix(1,0,0,1,0.67323,-14.1909)">
            <path d="M883.22,266.663L918.92,147.663L982.52,147.663L1018.22,266.663L976.22,266.663L948.62,164.063L952.22,164.063L924.82,266.663L883.22,266.663ZM916.62,242.463L925.52,211.463L975.62,211.463L984.52,242.463L916.62,242.463Z" style="fill:rgb(247,247,247);fill-rule:nonzero;"/>
        </g>
        <g transform="matrix(1,0,0,1,0.67323,-14.1909)">
            <path d="M1063.32,268.263C1055.99,268.263 1048.87,267.779 1041.97,266.813C1035.07,265.846 1028.99,264.663 1023.72,263.263L1023.72,230.963C1027.79,232.029 1032.14,232.946 1036.77,233.713C1041.4,234.479 1045.97,235.079 1050.47,235.513C1054.97,235.946 1059.05,236.163 1062.72,236.163C1067.45,236.163 1071,235.929 1073.37,235.463C1075.74,234.996 1077.3,234.363 1078.07,233.563C1078.84,232.763 1079.22,231.863 1079.22,230.863C1079.22,229.929 1078.94,229.096 1078.37,228.363C1077.8,227.629 1076.59,226.913 1074.72,226.213C1072.85,225.513 1070.05,224.796 1066.32,224.063L1055.82,222.063C1043.35,219.596 1034.17,215.329 1028.27,209.263C1022.37,203.196 1019.42,195.496 1019.42,186.163C1019.42,178.496 1021.54,171.629 1025.77,165.563C1030,159.496 1036.7,154.729 1045.87,151.263C1055.04,147.796 1067.02,146.063 1081.82,146.063C1087.55,146.063 1093.14,146.329 1098.57,146.863C1104,147.396 1108.85,148.096 1113.12,148.963L1113.12,181.263C1108.59,180.263 1103.75,179.479 1098.62,178.913C1093.49,178.346 1088.29,178.063 1083.02,178.063C1076.62,178.063 1071.85,178.329 1068.72,178.863C1065.59,179.396 1063.52,180.096 1062.52,180.963C1061.52,181.829 1061.02,182.763 1061.02,183.763C1061.02,184.896 1061.59,185.896 1062.72,186.763C1063.85,187.629 1066.79,188.596 1071.52,189.663L1082.02,191.663C1090.95,193.463 1098.29,195.929 1104.02,199.063C1109.75,202.196 1113.99,206.163 1116.72,210.963C1119.45,215.763 1120.82,221.529 1120.82,228.263C1120.82,235.929 1118.7,242.763 1114.47,248.763C1110.24,254.763 1103.85,259.513 1095.32,263.013C1086.79,266.513 1076.12,268.263 1063.32,268.263Z" style="fill:rgb(247,247,247);fill-rule:nonzero;"/>
        </g>
        <g transform="matrix(1,0,0,1,0.67323,-14.1909)">
            <path d="M1136.12,266.663L1136.12,147.663L1179.22,147.663L1179.22,188.263L1215.02,188.263L1215.02,147.663L1258.12,147.663L1258.12,266.663L1215.02,266.663L1215.02,223.663L1179.22,223.663L1179.22,266.663L1136.12,266.663Z" style="fill:rgb(247,247,247);fill-rule:nonzero;"/>
        </g>
        <g transform="matrix(1,0,0,1,0.67323,-14.1909)">
            <rect x="1280.32" y="147.663" width="43.1" height="119" style="fill:rgb(247,247,247);fill-rule:nonzero;"/>
        </g>
        <g transform="matrix(1,0,0,1,0.67323,-14.1909)">
            <path d="M1345.62,266.663L1345.62,147.663L1446.02,147.663L1446.02,178.463L1387.72,178.463L1387.72,235.863L1446.82,235.863L1446.82,266.663L1345.62,266.663ZM1370.62,221.763L1370.62,190.963L1436.92,190.963L1436.92,221.763L1370.62,221.763Z" style="fill:rgb(247,247,247);fill-rule:nonzero;"/>
        </g>
        <g transform="matrix(1,0,0,1,0.67323,-14.1909)">
            <path d="M1465.32,266.663L1465.32,151.163C1471.99,149.629 1479.32,148.379 1487.32,147.413C1495.32,146.446 1503.25,145.963 1511.12,145.963C1531.19,145.963 1546.32,149.396 1556.52,156.263C1566.72,163.129 1571.82,173.596 1571.82,187.663C1571.82,196.663 1569.45,204.229 1564.72,210.363C1559.99,216.496 1553.47,221.129 1545.17,224.263C1536.87,227.396 1527.32,228.963 1516.52,228.963C1515.05,228.963 1513.59,228.929 1512.12,228.863C1510.65,228.796 1509.15,228.729 1507.62,228.663L1507.62,266.663L1465.32,266.663ZM1536.62,266.663L1501.22,212.763L1546.52,212.763L1583.12,266.663L1536.62,266.663ZM1516.82,200.163C1521.82,200.163 1525.57,199.163 1528.07,197.163C1530.57,195.163 1531.82,191.929 1531.82,187.463C1531.82,182.929 1530.45,179.613 1527.72,177.513C1524.99,175.413 1521.05,174.363 1515.92,174.363C1514.72,174.363 1513.34,174.429 1511.77,174.563C1510.2,174.696 1508.82,174.896 1507.62,175.163L1507.62,199.763C1509.35,199.896 1510.9,199.996 1512.27,200.063C1513.64,200.129 1515.15,200.163 1516.82,200.163Z" style="fill:rgb(247,247,247);fill-rule:nonzero;"/>
        </g>
        <g transform="matrix(1,0,0,1.02703,0,-4.3271)">
            <path d="M1598.52,266.663L1598.52,53.543L1760.08,53.543L1760.08,103.799L1661.01,103.799L1661.01,266.663L1598.52,266.663ZM1637.25,190.055L1637.25,139.799L1744.96,139.799L1744.96,190.055L1637.25,190.055Z" style="fill:rgb(46,195,36);fill-rule:nonzero;"/>
        </g>
        <g transform="matrix(1,0,0,0.94432,-16.504,-0.854133)">
            <path d="M1836.99,268.263C1822.99,268.263 1811.54,266.129 1802.64,261.863C1793.74,257.596 1787.17,251.329 1782.94,243.063C1778.7,234.796 1776.59,224.629 1776.59,212.563L1776.59,147.663L1819.69,147.663L1819.69,216.063C1819.69,222.596 1821.15,227.429 1824.09,230.563C1827.02,233.696 1831.32,235.263 1836.99,235.263C1842.72,235.263 1847.04,233.696 1849.94,230.563C1852.84,227.429 1854.29,222.596 1854.29,216.063L1854.29,147.663L1896.59,147.663L1896.59,212.563C1896.59,224.629 1894.5,234.796 1890.34,243.063C1886.17,251.329 1879.7,257.596 1870.94,261.863C1862.17,266.129 1850.85,268.263 1836.99,268.263Z" style="fill:rgb(247,247,247);fill-rule:nonzero;"/>
        </g>
    </g>
</svg>
